<svg width="342" height="33" viewBox="0 0 342 33" fill="none" xmlns="http://www.w3.org/2000/svg">
<g clip-path="url(#clip0_1_2967)">
<path d="M30.4254 5.29861C29.1446 6.20207 27.7264 6.89307 26.2256 7.34501C25.4201 6.41879 24.3495 5.76231 23.1587 5.46436C21.9679 5.16641 20.7143 5.24135 19.5675 5.67907C18.4207 6.11678 17.436 6.89614 16.7466 7.91174C16.0571 8.92734 15.6962 10.1302 15.7127 11.3576V12.6951C13.3622 12.756 11.0331 12.2347 8.93283 11.1776C6.83257 10.1205 5.02635 8.56033 3.67504 6.63612C3.67504 6.63612 -1.67504 18.6738 10.3626 24.0239C7.60805 25.8937 4.32662 26.8312 1 26.6989C13.0377 33.3865 27.7504 26.6989 27.7504 11.3174C27.7491 10.9449 27.7133 10.5732 27.6434 10.2073C29.0084 8.86108 29.9718 7.16138 30.4254 5.29861Z" fill="black"/>
</g>
<g clip-path="url(#clip1_1_2967)">
<path d="M175.745 7.28498C177.017 7.28893 178.236 7.81703 179.135 8.75392C180.035 9.69081 180.542 10.9604 180.545 12.2853V22.285C180.542 23.6099 180.035 24.8795 179.135 25.8164C178.236 26.7533 177.017 27.2814 175.745 27.2853H166.145C164.874 27.2814 163.655 26.7533 162.755 25.8164C161.856 24.8795 161.349 23.6099 161.345 22.285V12.2853C161.349 10.9604 161.856 9.69081 162.755 8.75392C163.655 7.81703 164.874 7.28893 166.145 7.28498H175.745ZM175.745 5.28516H166.145C162.449 5.28516 159.425 8.43516 159.425 12.2853V22.285C159.425 26.1352 162.449 29.2852 166.145 29.2852H175.745C179.441 29.2852 182.465 26.1352 182.465 22.285V12.2853C182.465 8.43516 179.441 5.28516 175.745 5.28516Z" fill="black"/>
<path d="M177.186 12.2108C176.901 12.2108 176.622 12.1203 176.386 11.9507C176.149 11.7812 175.964 11.5402 175.855 11.2583C175.746 10.9764 175.718 10.6662 175.773 10.3669C175.829 10.0676 175.966 9.79267 176.167 9.5769C176.369 9.36112 176.625 9.21418 176.905 9.15465C177.184 9.09511 177.474 9.12567 177.737 9.24245C178 9.35922 178.225 9.55698 178.383 9.8107C178.541 10.0644 178.626 10.3627 178.626 10.6679C178.626 10.8706 178.589 11.0714 178.517 11.2588C178.445 11.4462 178.339 11.6165 178.205 11.7598C178.071 11.9032 177.912 12.0168 177.737 12.0942C177.562 12.1716 177.375 12.2112 177.186 12.2108ZM170.946 13.239C171.705 13.239 172.448 13.4803 173.079 13.9324C173.711 14.3845 174.203 15.0271 174.494 15.7789C174.784 16.5308 174.86 17.3581 174.712 18.1562C174.564 18.9543 174.198 19.6875 173.661 20.2629C173.124 20.8383 172.44 21.2302 171.695 21.389C170.95 21.5477 170.178 21.4662 169.476 21.1548C168.774 20.8434 168.175 20.316 167.753 19.6394C167.331 18.9628 167.105 18.1673 167.105 17.3535C167.106 16.2626 167.511 15.2167 168.231 14.4454C168.951 13.674 169.928 13.2401 170.946 13.239ZM170.946 11.182C169.806 11.182 168.693 11.5439 167.746 12.2221C166.798 12.9002 166.06 13.8641 165.624 14.9918C165.188 16.1195 165.074 17.3603 165.296 18.5575C165.518 19.7546 166.067 20.8543 166.873 21.7174C167.678 22.5805 168.705 23.1683 169.822 23.4064C170.939 23.6445 172.097 23.5223 173.15 23.0552C174.202 22.5881 175.102 21.7971 175.735 20.7822C176.368 19.7673 176.706 18.5741 176.706 17.3535C176.706 15.7167 176.099 14.147 175.019 12.9896C173.938 11.8322 172.473 11.182 170.946 11.182Z" fill="black"/>
</g>
<g clip-path="url(#clip2_1_2967)">
<path d="M329.468 5.28516C322.84 5.28516 317.465 10.6572 317.465 17.2825C317.465 22.1939 320.423 26.4144 324.651 28.2729C324.619 27.4374 324.646 26.4304 324.86 25.5199C325.09 24.5451 326.403 18.9803 326.403 18.9803C326.403 18.9803 326.017 18.2144 326.017 17.0843C326.017 15.3061 327.046 13.9779 328.332 13.9779C329.425 13.9779 329.95 14.7973 329.95 15.7775C329.95 16.8754 329.248 18.5143 328.889 20.0354C328.589 21.3102 329.527 22.3438 330.786 22.3438C333.058 22.3438 334.591 19.4249 334.591 15.9649C334.591 13.3351 332.817 11.3695 329.597 11.3695C325.958 11.3695 323.686 14.085 323.686 17.1164C323.686 18.1609 323.997 18.9 324.479 19.4677C324.699 19.7301 324.731 19.8373 324.651 20.1372C324.592 20.3568 324.463 20.887 324.404 21.1013C324.324 21.4066 324.078 21.5137 323.804 21.4012C322.127 20.7156 321.345 18.8839 321.345 16.8165C321.345 13.4101 324.222 9.32354 329.924 9.32354C334.505 9.32354 337.522 12.6389 337.522 16.1952C337.522 20.9031 334.901 24.4166 331.043 24.4166C329.747 24.4166 328.53 23.715 328.112 22.9223C328.112 22.9223 327.416 25.686 327.266 26.2216C327.014 27.1481 326.516 28.0694 326.06 28.7924C327.165 29.1182 328.311 29.2841 329.463 29.2852C336.091 29.2852 341.465 23.9131 341.465 17.2878C341.465 10.6625 336.096 5.28516 329.468 5.28516Z" fill="black"/>
</g>
<g clip-path="url(#clip3_1_2967)">
<path d="M112.22 10.5844C112.22 7.77196 110.151 5.50953 107.594 5.50953C104.131 5.34765 100.599 5.28516 96.9903 5.28516H95.8651C92.2647 5.28516 88.7267 5.34765 85.2638 5.51015C82.7135 5.51015 80.6445 7.78509 80.6445 10.5975C80.4882 12.8218 80.4219 15.0468 80.4257 17.2717C80.4194 19.4966 80.4903 21.7237 80.6382 23.9528C80.6382 26.7652 82.7072 29.0464 85.2575 29.0464C88.8955 29.2151 92.6272 29.2901 96.4214 29.2839C100.222 29.2964 103.943 29.2172 107.585 29.0464C110.142 29.0464 112.211 26.7652 112.211 23.9528C112.361 21.7216 112.43 19.4966 112.424 17.2655C112.438 15.0405 112.37 12.8135 112.22 10.5844ZM93.3648 23.4028V11.1219L102.428 17.2592L93.3648 23.4028Z" fill="black"/>
</g>
<g clip-path="url(#clip4_1_2967)">
<path d="M251.465 5.28516H247.92C246.353 5.28516 244.85 5.9173 243.742 7.04252C242.633 8.16773 242.011 9.69386 242.011 11.2852V14.8852H238.465V19.6852H242.011V29.2852H246.738V19.6852H250.283L251.465 14.8852H246.738V11.2852C246.738 10.9669 246.863 10.6617 247.084 10.4366C247.306 10.2116 247.606 10.0852 247.92 10.0852H251.465V5.28516Z" fill="black"/>
</g>
<defs>
<clipPath id="clip0_1_2967">
<rect width="30" height="25" fill="white" transform="translate(1 5)"/>
</clipPath>
<clipPath id="clip1_1_2967">
<rect width="24" height="25" fill="white" transform="translate(159 5)"/>
</clipPath>
<clipPath id="clip2_1_2967">
<rect width="25" height="25" fill="white" transform="translate(317 5)"/>
</clipPath>
<clipPath id="clip3_1_2967">
<rect width="33" height="25" fill="white" transform="translate(80 5)"/>
</clipPath>
<clipPath id="clip4_1_2967">
<rect width="14" height="25" fill="white" transform="translate(238 5)"/>
</clipPath>
</defs>
</svg>
