<svg width="600" height="597" viewBox="0 0 600 597" fill="none" xmlns="http://www.w3.org/2000/svg">
<path d="M0 0H600V597H0V0Z" fill="black"/>
<g clip-path="url(#clip0_1_2617)">
<path d="M357.202 271.428H242.107C237.74 271.428 234.2 274.967 234.2 279.333V313.589C234.2 317.955 237.74 321.494 242.107 321.494H357.202C361.569 321.494 365.109 317.955 365.109 313.589V279.333C365.109 274.967 361.569 271.428 357.202 271.428Z" fill="white" stroke="white" stroke-width="1.9798"/>
<path d="M270.977 289.44V304.196H272.916V297.914H280.655V296.079H272.916V291.274H281.287V289.44H270.977Z" fill="black"/>
<path d="M282.592 299.2C282.592 302.151 284.638 304.407 287.653 304.407C290.646 304.407 292.734 302.151 292.734 299.2C292.734 296.249 290.689 293.992 287.653 293.992C284.638 293.992 282.592 296.249 282.592 299.2ZM290.858 299.2C290.858 301.308 289.529 302.763 287.653 302.763C285.797 302.763 284.448 301.287 284.448 299.2C284.448 297.113 285.797 295.638 287.653 295.638C288.601 295.638 289.36 295.975 289.95 296.649C290.562 297.302 290.858 298.166 290.858 299.2Z" fill="black"/>
<path d="M294.92 304.196H296.733V289.44H294.92V304.196Z" fill="black"/>
<path d="M299.553 304.196H301.367V289.44H299.553V304.196Z" fill="black"/>
<path d="M303.575 299.2C303.575 302.151 305.62 304.407 308.635 304.407C311.63 304.407 313.717 302.151 313.717 299.2C313.717 296.249 311.672 293.992 308.635 293.992C305.62 293.992 303.575 296.249 303.575 299.2ZM311.841 299.2C311.841 301.308 310.512 302.763 308.635 302.763C306.78 302.763 305.43 301.287 305.43 299.2C305.43 297.113 306.78 295.638 308.635 295.638C309.585 295.638 310.344 295.975 310.934 296.649C311.545 297.302 311.841 298.166 311.841 299.2Z" fill="black"/>
<path d="M316.456 294.204H314.664L317.637 304.196H319.914L322.128 296.522L324.342 304.196H326.598L329.572 294.204H327.779L325.438 302.425L323.182 294.204H321.053L318.797 302.425L316.456 294.204Z" fill="black"/>
<path fill-rule="evenodd" clip-rule="evenodd" d="M270.537 289H281.727V291.713H273.356V295.64H281.095V298.353H273.356V304.635H270.537V289ZM272.917 304.196H270.976V289.44H281.288V291.274H272.917V296.079H280.655V297.914H272.917V304.196ZM289.626 296.944L289.62 296.938C289.118 296.364 288.482 296.076 287.653 296.076C286.081 296.076 284.887 297.313 284.887 299.2C284.887 301.087 286.081 302.324 287.653 302.324C288.471 302.324 289.153 302.009 289.633 301.477C290.116 300.942 290.418 300.162 290.418 299.2C290.418 298.253 290.15 297.504 289.63 296.949L289.626 296.944ZM287.653 304.846C284.375 304.846 282.152 302.373 282.152 299.2C282.152 296.026 284.375 293.553 287.653 293.553C290.951 293.553 293.174 296.025 293.174 299.2C293.174 302.377 290.906 304.846 287.653 304.846ZM289.951 296.649C289.361 295.975 288.601 295.637 287.653 295.637C285.798 295.637 284.448 297.113 284.448 299.2C284.448 301.287 285.798 302.763 287.653 302.763C289.53 302.763 290.858 301.308 290.858 299.2C290.858 298.166 290.563 297.302 289.951 296.649ZM294.481 304.635V289H297.173V304.635H294.481ZM296.734 304.196H294.921V289.44H296.734V304.196ZM299.114 304.635V289H301.806V304.635H299.114ZM301.367 304.196H299.554V289.44H301.367V304.196ZM310.608 296.944L310.604 296.938C310.101 296.364 309.465 296.076 308.636 296.076C307.063 296.076 305.87 297.313 305.87 299.2C305.87 301.087 307.063 302.324 308.636 302.324C309.454 302.324 310.136 302.009 310.616 301.477C311.099 300.942 311.402 300.162 311.402 299.2C311.402 298.253 311.134 297.504 310.614 296.949L310.608 296.944ZM308.636 304.846C305.357 304.846 303.136 302.373 303.136 299.2C303.136 296.026 305.357 293.553 308.636 293.553C311.934 293.553 314.157 296.025 314.157 299.2C314.157 302.377 311.889 304.846 308.636 304.846ZM310.934 296.649C310.344 295.975 309.585 295.637 308.636 295.637C306.78 295.637 305.431 297.113 305.431 299.2C305.431 301.287 306.78 302.763 308.636 302.763C310.512 302.763 311.841 301.308 311.841 299.2C311.841 298.166 311.545 297.302 310.934 296.649ZM316.788 293.764L318.789 300.794L320.718 293.764H323.518L325.446 300.794L327.448 293.764H330.161L326.926 304.635H324.012L322.129 298.107L320.244 304.635H317.309L314.075 293.764H316.788ZM322.129 296.522L324.342 304.196H326.598L329.572 294.204H327.78L325.439 302.425L323.183 294.204H321.053L318.797 302.425L316.456 294.204H314.663L317.637 304.196H319.914L322.129 296.522ZM287.653 304.407C284.638 304.407 282.592 302.151 282.592 299.2C282.592 296.248 284.638 293.992 287.653 293.992C290.689 293.992 292.735 296.248 292.735 299.2C292.735 302.151 290.647 304.407 287.653 304.407ZM308.636 304.407C305.62 304.407 303.575 302.151 303.575 299.2C303.575 296.248 305.62 293.992 308.636 293.992C311.672 293.992 313.717 296.248 313.717 299.2C313.717 302.151 311.63 304.407 308.636 304.407Z" fill="white"/>
<path fill-rule="evenodd" clip-rule="evenodd" d="M303.419 83.3239C282.069 83.3239 264.762 100.627 264.762 121.972C264.762 143.316 282.069 160.62 303.419 160.62H305.177C326.527 160.62 343.835 143.316 343.835 121.972C343.835 100.627 326.527 83.3239 305.177 83.3239H303.419ZM303.419 440.817C282.069 440.817 264.762 458.12 264.762 479.464C264.762 500.81 282.069 518.113 303.419 518.113H305.177C326.527 518.113 343.835 500.81 343.835 479.464C343.835 458.12 326.527 440.817 305.177 440.817H303.419ZM439.161 300.718C439.161 279.374 456.468 262.07 477.818 262.07H479.576C500.926 262.07 518.234 279.374 518.234 300.718C518.234 322.063 500.926 339.366 479.576 339.366H477.818C456.468 339.366 439.161 322.063 439.161 300.718ZM122.871 262.07C101.521 262.07 84.2129 279.374 84.2129 300.718C84.2129 322.063 101.521 339.366 122.871 339.366H124.628C145.978 339.366 163.286 322.063 163.286 300.718C163.286 279.374 145.978 262.07 124.628 262.07H122.871Z" fill="black"/>
<path d="M265.649 121.972C265.649 101.117 282.56 84.2113 303.419 84.2113V82.4366C281.579 82.4366 263.874 100.137 263.874 121.972H265.649ZM303.419 159.732C282.56 159.732 265.649 142.826 265.649 121.972H263.874C263.874 143.807 281.579 161.507 303.419 161.507V159.732ZM305.176 159.732H303.419V161.507H305.176V159.732ZM342.947 121.972C342.947 142.826 326.036 159.732 305.176 159.732V161.507C327.017 161.507 344.722 143.807 344.722 121.972H342.947ZM305.176 84.2113C326.036 84.2113 342.947 101.117 342.947 121.972H344.722C344.722 100.137 327.017 82.4366 305.176 82.4366V84.2113ZM303.419 84.2113H305.176V82.4366H303.419V84.2113ZM265.649 479.464C265.649 458.611 282.56 441.704 303.419 441.704V439.93C281.579 439.93 263.874 457.63 263.874 479.464H265.649ZM303.419 517.225C282.56 517.225 265.649 500.319 265.649 479.464H263.874C263.874 501.3 281.579 519 303.419 519V517.225ZM305.176 517.225H303.419V519H305.176V517.225ZM342.947 479.464C342.947 500.319 326.036 517.225 305.176 517.225V519C327.017 519 344.722 501.3 344.722 479.464H342.947ZM305.176 441.704C326.036 441.704 342.947 458.611 342.947 479.464H344.722C344.722 457.63 327.017 439.93 305.176 439.93V441.704ZM303.419 441.704H305.176V439.93H303.419V441.704ZM477.818 261.183C455.978 261.183 438.273 278.884 438.273 300.718H440.048C440.048 279.864 456.959 262.957 477.818 262.957V261.183ZM479.576 261.183H477.818V262.957H479.576V261.183ZM519.121 300.718C519.121 278.884 501.416 261.183 479.576 261.183V262.957C500.436 262.957 517.346 279.864 517.346 300.718H519.121ZM479.576 340.253C501.416 340.253 519.121 322.553 519.121 300.718H517.346C517.346 321.573 500.436 338.478 479.576 338.478V340.253ZM477.818 340.253H479.576V338.478H477.818V340.253ZM438.273 300.718C438.273 322.553 455.978 340.253 477.818 340.253V338.478C456.959 338.478 440.048 321.573 440.048 300.718H438.273ZM85.1003 300.718C85.1003 279.864 102.011 262.957 122.87 262.957V261.183C101.03 261.183 83.3252 278.884 83.3252 300.718H85.1003ZM122.871 338.478C102.011 338.478 85.1003 321.573 85.1003 300.718H83.3252C83.3252 322.553 101.03 340.253 122.871 340.253V338.478ZM124.628 338.478H122.871V340.253H124.628V338.478ZM162.398 300.718C162.398 321.573 145.488 338.478 124.628 338.478V340.253C146.468 340.253 164.173 322.553 164.173 300.718H162.398ZM124.628 262.957C145.488 262.957 162.398 279.864 162.398 300.718H164.173C164.173 278.884 146.468 261.183 124.628 261.183V262.957ZM122.87 262.957H124.628V261.183H122.87V262.957Z" fill="black"/>
<path d="M299.851 436.38H298.094C276.744 436.38 259.437 453.684 259.437 475.028V475.028C259.437 496.373 276.744 513.676 298.094 513.676H299.851C321.202 513.676 338.509 496.373 338.509 475.028V475.028C338.509 453.684 321.202 436.38 299.851 436.38Z" fill="#D6D3D1" stroke="black" stroke-width="2"/>
<path d="M298.973 451.312C285.873 451.312 275.252 461.931 275.252 475.029C275.252 488.126 285.873 498.744 298.973 498.744C312.074 498.744 322.695 488.126 322.695 475.029C322.695 461.931 312.074 451.312 298.973 451.312Z" fill="#D6D3D1" stroke="black" stroke-width="2" stroke-miterlimit="10"/>
<path d="M298.973 451.312C292.35 451.312 286.123 461.931 286.123 475.028C286.123 488.126 292.35 498.744 298.973 498.744C305.595 498.744 311.822 488.126 311.822 475.028C311.822 461.931 305.595 451.312 298.973 451.312Z" fill="#D6D3D1" stroke="black" stroke-width="2" stroke-miterlimit="10"/>
<path d="M283.12 459.294C287.481 462.389 292.971 464.235 298.935 464.235C304.899 464.235 310.388 462.389 314.749 459.294" fill="#D6D3D1"/>
<path d="M283.12 459.294C287.481 462.389 292.971 464.235 298.935 464.235C304.899 464.235 310.388 462.389 314.749 459.294" stroke="black" stroke-width="2" stroke-linecap="round" stroke-linejoin="round"/>
<path d="M314.788 490.839C310.426 487.743 304.937 485.897 298.973 485.897C293.009 485.897 287.52 487.743 283.158 490.839" fill="#D6D3D1"/>
<path d="M314.788 490.839C310.426 487.743 304.937 485.897 298.973 485.897C293.009 485.897 287.52 487.743 283.158 490.839" stroke="black" stroke-width="2" stroke-linecap="round" stroke-linejoin="round"/>
<path d="M298.973 451.312V498.744" stroke="black" stroke-width="2" stroke-miterlimit="10"/>
<path d="M322.695 475.028H275.251" stroke="black" stroke-width="2" stroke-miterlimit="10"/>
<path d="M300.793 174.566C300.273 174.047 299.431 174.047 298.91 174.566L290.438 183.036C289.918 183.556 289.918 184.399 290.438 184.919C290.958 185.438 291.8 185.438 292.32 184.919L299.851 177.389L307.383 184.919C307.903 185.438 308.745 185.438 309.266 184.919C309.786 184.399 309.786 183.556 309.266 183.036L300.793 174.566ZM301.183 270.37V267.998H298.52V270.37H301.183ZM301.183 263.256V258.512H298.52V263.256H301.183ZM301.183 253.769V249.026H298.52V253.769H301.183ZM301.183 244.283V239.54H298.52V244.283H301.183ZM301.183 234.796V230.054H298.52V234.796H301.183ZM301.183 225.31V220.567H298.52V225.31H301.183ZM301.183 215.824V211.081H298.52V215.824H301.183ZM301.183 206.337V201.594H298.52V206.337H301.183ZM301.183 196.852V192.108H298.52V196.852H301.183ZM301.183 187.365V182.622H298.52V187.365H301.183ZM301.183 177.879V175.507H298.52V177.879H301.183Z" fill="#FBFBF9"/>
<path d="M298.91 417.998C299.431 418.517 300.273 418.517 300.793 417.998L309.266 409.527C309.786 409.007 309.786 408.164 309.266 407.644C308.745 407.125 307.903 407.125 307.383 407.644L299.851 415.174L292.32 407.644C291.8 407.125 290.958 407.125 290.438 407.644C289.918 408.164 289.918 409.007 290.438 409.527L298.91 417.998ZM298.52 322.193V324.565H301.183V322.193H298.52ZM298.52 329.308V334.052H301.183V329.308H298.52ZM298.52 338.794V343.537H301.183V338.794H298.52ZM298.52 348.281V353.023H301.183V348.281H298.52ZM298.52 357.767V362.51H301.183V357.767H298.52ZM298.52 367.253V371.996H301.183V367.253H298.52ZM298.52 376.74V381.483H301.183V376.74H298.52ZM298.52 386.226V390.969H301.183V386.226H298.52ZM298.52 395.712V400.455H301.183V395.712H298.52ZM298.52 405.198V409.942H301.183V405.198H298.52ZM298.52 414.684V417.056H301.183V414.684H298.52Z" fill="white"/>
<path d="M421.598 297.223C422.118 296.703 422.118 295.86 421.598 295.34L413.126 286.87C412.605 286.351 411.763 286.351 411.243 286.87C410.723 287.39 410.723 288.233 411.243 288.753L418.774 296.282L411.243 303.811C410.723 304.331 410.723 305.173 411.243 305.693C411.763 306.213 412.605 306.213 413.126 305.693L421.598 297.223ZM366.185 297.613H368.454V294.951H366.185V297.613ZM372.993 297.613H377.533V294.951H372.993V297.613ZM382.072 297.613H386.612V294.951H382.072V297.613ZM391.151 297.613H395.691V294.951H391.151V297.613ZM400.229 297.613H404.769V294.951H400.229V297.613ZM409.308 297.613H413.848V294.951H409.308V297.613ZM418.387 297.613H420.657V294.951H418.387V297.613Z" fill="white"/>
<path d="M178.105 295.34C177.585 295.86 177.585 296.703 178.105 297.223L186.577 305.693C187.098 306.213 187.94 306.213 188.46 305.693C188.98 305.173 188.98 304.331 188.46 303.811L180.929 296.282L188.46 288.753C188.98 288.233 188.98 287.39 188.46 286.87C187.94 286.351 187.098 286.351 186.577 286.87L178.105 295.34ZM233.518 294.951H231.249V297.613H233.518V294.951ZM226.709 294.951H222.17V297.613H226.709V294.951ZM217.63 294.951H213.091V297.613H217.63V294.951ZM208.552 294.951H204.013V297.613H208.552V294.951ZM199.474 294.951H194.934V297.613H199.474V294.951ZM190.395 294.951H185.855V297.613H190.395V294.951ZM181.316 294.951H179.046V297.613H181.316V294.951Z" fill="white"/>
<path d="M299.851 78.8873H298.094C276.744 78.8873 259.437 96.1906 259.437 117.535V117.535C259.437 138.88 276.744 156.183 298.094 156.183H299.851C321.202 156.183 338.509 138.88 338.509 117.535V117.535C338.509 96.1906 321.202 78.8873 299.851 78.8873Z" fill="#23A094" stroke="black" stroke-width="2"/>
<path d="M314.307 103.042H284.078C282.089 103.042 280.479 104.653 280.479 106.64V128.227C280.479 130.215 282.089 131.825 284.078 131.825H314.307C316.295 131.825 317.906 130.215 317.906 128.227V106.64C317.906 104.653 316.295 103.042 314.307 103.042Z" fill="#23A094" stroke="black" stroke-width="3" stroke-linecap="round" stroke-linejoin="round"/>
<path d="M286.237 108.799L299.193 118.873L312.148 108.799" fill="#23A094"/>
<path d="M286.237 108.799L299.193 118.873L312.148 108.799" stroke="black" stroke-width="2" stroke-linecap="round" stroke-linejoin="round"/>
<path d="M474.251 258.512H472.493C451.629 258.512 434.714 275.422 434.714 296.281V296.281C434.714 317.141 451.629 334.051 472.493 334.051H474.251C495.116 334.051 512.03 317.141 512.03 296.281V296.281C512.03 275.422 495.116 258.512 474.251 258.512Z" fill="#FF90E8" stroke="black" stroke-width="1.9798"/>
<path d="M119.302 257.633H117.545C96.1951 257.633 78.8875 274.937 78.8875 296.281V296.281C78.8875 317.626 96.1951 334.929 117.545 334.929H119.302C140.652 334.929 157.96 317.626 157.96 296.281V296.281C157.96 274.937 140.652 257.633 119.302 257.633Z" fill="#302F2A" stroke="black" stroke-width="2"/>
<path d="M471.954 315.126C471.954 315.391 472.169 315.606 472.434 315.606H474.046C474.311 315.606 474.526 315.391 474.526 315.126V312.388C474.526 312.136 474.722 311.928 474.972 311.904C480.597 311.36 484.793 308.249 484.793 302.958V302.914C484.793 298.146 481.628 295.762 475.757 294.393L474.897 294.193C474.68 294.142 474.526 293.949 474.526 293.725V286.095C474.526 285.803 474.785 285.578 475.071 285.639C477.41 286.142 479.005 287.661 479.274 290.056C479.275 290.063 479.276 290.07 479.28 290.077C479.291 290.098 479.312 290.111 479.335 290.111L484.375 290.089C484.388 290.089 484.398 290.079 484.398 290.067C484.205 285.143 480.445 281.748 474.967 281.147C474.719 281.12 474.526 280.912 474.526 280.663V277.877C474.526 277.611 474.311 277.397 474.046 277.397H472.434C472.169 277.397 471.954 277.611 471.954 277.877V280.658C471.954 280.91 471.758 281.118 471.507 281.142C466.003 281.676 462.104 284.924 462.104 289.846V289.89C462.104 294.481 465.182 297.042 470.832 298.345L471.584 298.522C471.801 298.574 471.954 298.766 471.954 298.989V306.993C471.954 307.278 471.706 307.502 471.423 307.456C468.485 306.983 467.013 305.324 466.657 303.055C466.656 303.049 466.654 303.043 466.651 303.037C466.64 303.016 466.618 303.002 466.594 303.002L461.549 303.024C461.539 303.024 461.529 303.028 461.522 303.035C461.515 303.042 461.511 303.052 461.511 303.063C461.691 308.256 465.906 311.401 471.504 311.907C471.757 311.93 471.954 312.138 471.954 312.392V315.126ZM467.403 289.493V289.449C467.403 287.668 468.778 286.1 471.42 285.621C471.702 285.571 471.954 285.794 471.954 286.082V292.887C471.954 293.202 471.655 293.432 471.354 293.34C468.54 292.481 467.403 291.228 467.403 289.493ZM479.495 303.443V303.488C479.495 305.559 478.112 307.075 475.046 307.472C474.768 307.508 474.526 307.286 474.526 307.005V299.821C474.526 299.509 474.822 299.28 475.123 299.364C478.415 300.288 479.495 301.462 479.495 303.443Z" fill="black"/>
<path d="M152 296.506C152 292.712 146.359 289.117 137.71 286.887C139.706 279.463 138.819 273.556 134.91 271.665C134.009 271.222 132.956 271.012 131.805 271.012V273.615C132.443 273.615 132.956 273.72 133.385 273.918C135.27 274.829 136.088 278.296 135.45 282.755C135.298 283.852 135.049 285.008 134.744 286.187C132.027 285.626 129.061 285.195 125.942 284.914C124.071 282.755 122.13 280.794 120.176 279.078C124.695 275.541 128.936 273.603 131.819 273.603V271C128.007 271 123.018 273.288 117.972 277.257C112.927 273.311 107.937 271.047 104.126 271.047V273.65C106.995 273.65 111.25 275.576 115.768 279.089C113.828 280.805 111.887 282.755 110.044 284.914C106.912 285.195 103.945 285.626 101.229 286.198C100.91 285.031 100.674 283.899 100.508 282.813C99.8565 278.354 100.66 274.887 102.532 273.965C102.947 273.755 103.488 273.661 104.126 273.661V271.058C102.961 271.058 101.908 271.268 100.993 271.712C97.0982 273.603 96.225 279.498 98.2348 286.899C89.6135 289.14 84 292.724 84 296.506C84 300.3 89.6413 303.895 98.2903 306.125C96.2943 313.549 97.1814 319.455 101.09 321.346C101.991 321.79 103.044 322 104.209 322C108.02 322 113.01 319.712 118.055 315.743C123.101 319.689 128.09 321.953 131.902 321.953C133.066 321.953 134.12 321.743 135.035 321.3C138.929 319.409 139.803 313.514 137.793 306.113C146.386 303.883 152 300.288 152 296.506ZM133.954 288.72C133.441 290.226 132.803 291.778 132.082 293.331C131.514 292.397 130.918 291.463 130.267 290.529C129.629 289.595 128.95 288.685 128.271 287.798C130.239 288.043 132.138 288.346 133.954 288.72ZM127.605 301.152C126.524 302.728 125.415 304.222 124.265 305.611C122.2 305.763 120.107 305.844 118 305.844C115.907 305.844 113.814 305.763 111.763 305.623C110.612 304.233 109.49 302.751 108.408 301.187C107.355 299.658 106.399 298.105 105.525 296.541C106.385 294.977 107.355 293.412 108.395 291.883C109.476 290.307 110.585 288.813 111.735 287.424C113.8 287.272 115.893 287.191 118 287.191C120.093 287.191 122.186 287.272 124.237 287.412C125.388 288.802 126.51 290.284 127.592 291.848C128.645 293.377 129.601 294.93 130.475 296.494C129.601 298.058 128.645 299.623 127.605 301.152ZM132.082 299.634C132.831 301.198 133.468 302.763 133.995 304.28C132.179 304.654 130.267 304.969 128.285 305.214C128.964 304.315 129.643 303.393 130.28 302.447C130.918 301.514 131.514 300.568 132.082 299.634ZM118.028 312.089C116.739 310.969 115.45 309.72 114.174 308.354C115.422 308.401 116.697 308.436 117.986 308.436C119.289 308.436 120.578 308.412 121.839 308.354C120.592 309.72 119.303 310.969 118.028 312.089ZM107.715 305.214C105.747 304.969 103.848 304.665 102.033 304.292C102.545 302.786 103.183 301.233 103.904 299.681C104.472 300.615 105.068 301.549 105.72 302.482C106.371 303.416 107.036 304.327 107.715 305.214ZM117.958 280.922C119.247 282.043 120.536 283.292 121.812 284.658C120.564 284.611 119.289 284.576 118 284.576C116.697 284.576 115.408 284.599 114.147 284.658C115.394 283.292 116.683 282.043 117.958 280.922ZM107.702 287.798C107.022 288.696 106.343 289.619 105.706 290.564C105.068 291.498 104.472 292.432 103.904 293.366C103.155 291.802 102.518 290.237 101.991 288.72C103.807 288.358 105.72 288.043 107.702 287.798ZM95.1578 302.412C90.2511 300.65 87.077 298.339 87.077 296.506C87.077 294.673 90.2511 292.35 95.1578 290.599C96.3498 290.167 97.6527 289.782 98.9971 289.42C99.7872 291.708 100.827 294.089 102.116 296.529C100.841 298.957 99.8149 301.327 99.0387 303.603C97.6665 303.241 96.3636 302.844 95.1578 302.412ZM102.615 319.093C100.73 318.183 99.9119 314.716 100.55 310.257C100.702 309.16 100.951 308.004 101.256 306.825C103.973 307.385 106.939 307.817 110.058 308.097C111.929 310.257 113.87 312.218 115.824 313.934C111.305 317.471 107.064 319.409 104.181 319.409C103.557 319.397 103.031 319.292 102.615 319.093ZM135.492 310.198C136.143 314.658 135.34 318.125 133.468 319.047C133.053 319.257 132.512 319.35 131.874 319.35C129.005 319.35 124.75 317.424 120.232 313.911C122.172 312.195 124.113 310.245 125.956 308.086C129.088 307.805 132.055 307.374 134.771 306.802C135.09 307.981 135.34 309.113 135.492 310.198ZM140.828 302.412C139.636 302.844 138.333 303.23 136.989 303.591C136.199 301.304 135.159 298.922 133.87 296.482C135.146 294.054 136.171 291.685 136.947 289.409C138.32 289.77 139.622 290.167 140.842 290.599C145.749 292.362 148.923 294.673 148.923 296.506C148.909 298.339 145.735 300.661 140.828 302.412Z" fill="#61DAFB"/>
<path d="M117.986 301.841C121.484 301.841 124.32 299.452 124.32 296.506C124.32 293.56 121.484 291.171 117.986 291.171C114.488 291.171 111.652 293.56 111.652 296.506C111.652 299.452 114.488 301.841 117.986 301.841Z" fill="#61DAFB"/>
</g>
<defs>
<clipPath id="clip0_1_2617">
<rect width="442" height="441" fill="white" transform="translate(78 78)"/>
</clipPath>
</defs>
</svg>
