<svg width="71" height="72" viewBox="0 0 71 72" fill="none" xmlns="http://www.w3.org/2000/svg">
<g clip-path="url(#clip0_1_2896)">
<path d="M12.0179 70.3865L4.45508 64.644C3.28763 63.759 2.49025 62.4757 2.21633 61.0409V61.0404L0.552323 52.2206C0.360301 51.2049 0.438699 50.1568 0.779727 49.1805C1.12075 48.2043 1.71254 47.3338 2.49628 46.6556L6.46105 43.2251L6.62417 43.0842L6.45431 42.9514L6.03415 42.6232C5.19678 41.9631 4.5535 41.0908 4.1719 40.0979C3.7903 39.1049 3.68446 38.028 3.86551 36.9803C4.04632 35.9328 4.507 34.9531 5.19923 34.1437C5.8913 33.3346 6.7896 32.726 7.79972 32.3817V32.3808L10.9129 31.321L11.0756 31.2655L11.0257 31.1014C10.7897 30.3254 10.7165 29.5094 10.8105 28.704C10.9045 27.8987 11.1637 27.1211 11.5722 26.4196C11.98 25.7181 12.5284 25.1075 13.1833 24.6257C13.8382 24.144 14.5856 23.8014 15.3792 23.6192L18.1109 22.9985L18.3019 22.9551L18.2403 22.7699L16.6424 17.9531C16.2301 16.7116 16.2422 15.3692 16.6769 14.1352C17.1115 12.9013 17.9442 11.8451 19.0451 11.1314C19.7755 10.6584 20.6015 10.351 21.4645 10.2312L21.5854 10.2142L21.6133 10.0957C22.2567 7.35256 23.8131 4.90645 26.0296 3.15464C28.2456 1.40309 30.9918 0.448928 33.8217 0.447266H58.2097C61.5296 0.451738 64.7121 1.76652 67.0596 4.10361C69.4068 6.44177 70.7269 9.61067 70.7304 12.9158V37.1945C70.727 40.4997 69.4069 43.6686 67.0596 46.0067C64.7127 48.3439 61.5299 49.6591 58.2097 49.6635H56.4262L56.3745 49.7534C55.6819 50.9712 54.578 51.9052 53.2589 52.3897C51.9398 52.8741 50.4908 52.8776 49.1694 52.3995L46.2404 51.3392L46.0764 51.2797L46.0134 51.4416L45.454 52.8758C45.0642 53.8713 44.4109 54.7433 43.5634 55.3992C42.7159 56.0551 41.7059 56.4706 40.6404 56.6015H40.3896L40.3559 56.7361L38.6178 63.7178V63.7183C38.5755 63.8806 38.5315 64.0371 38.4785 64.1919L38.4776 64.1932C38.07 65.3944 37.2857 66.4337 36.2401 67.158C35.1946 67.8823 33.9429 68.2534 32.6695 68.2167C31.8248 68.1919 30.9951 67.9882 30.2357 67.6192L30.2312 67.617L30.2272 67.6152L24.7449 65.2983L24.6362 65.2522L24.5512 65.3336L19.7583 69.9308C18.6493 71.0004 17.1657 71.5989 15.6214 71.5989C14.3188 71.6003 13.0525 71.1742 12.0179 70.3865Z" fill="#90A8ED"/>
<path d="M15.6214 71.5989C17.1657 71.5989 18.6493 71.0004 19.7583 69.9308L24.5512 65.3336L24.6362 65.2522L24.7449 65.2983L30.2272 67.6152L30.2312 67.617L30.2357 67.6192C30.9951 67.9882 31.8248 68.1919 32.6695 68.2167C33.9429 68.2534 35.1946 67.8823 36.2401 67.158C37.2857 66.4337 38.07 65.3944 38.4776 64.1932L38.4785 64.1919C38.5315 64.0371 38.5755 63.8806 38.6178 63.7183V63.7178L40.3559 56.7361L40.3896 56.6015H40.6404C41.7059 56.4706 42.7159 56.0551 43.5634 55.3992C44.4109 54.7433 45.0642 53.8713 45.454 52.8758L46.0134 51.4416L46.0764 51.2797L46.2404 51.3392L49.1694 52.3995C50.4908 52.8776 51.9398 52.8741 53.2589 52.3897C54.578 51.9052 55.6819 50.9712 56.3745 49.7534L56.4262 49.6635H58.2097C61.5299 49.6591 64.7127 48.3439 67.0596 46.0067C69.4069 43.6686 70.727 40.4997 70.7304 37.1945V12.9158C70.7269 9.61067 69.4068 6.44177 67.0596 4.10361C64.7121 1.76652 61.5296 0.451738 58.2097 0.447266H33.8217C30.9918 0.448928 28.2456 1.40309 26.0296 3.15464C23.8131 4.90645 22.2567 7.35256 21.6133 10.0957L21.5854 10.2142L21.4645 10.2312C20.6015 10.351 19.7755 10.6584 19.0451 11.1314C17.9442 11.8451 17.1115 12.9013 16.6769 14.1352C16.2422 15.3692 16.2301 16.7116 16.6424 17.9531L18.2403 22.7699L18.3019 22.9551L18.1109 22.9985L15.3792 23.6192C14.5856 23.8014 13.8382 24.144 13.1833 24.6257C12.5284 25.1075 11.98 25.7181 11.5722 26.4196C11.1637 27.1211 10.9045 27.8987 10.8105 28.704C10.7165 29.5094 10.7897 30.3254 11.0257 31.1014L11.0756 31.2655L10.9129 31.321L7.79972 32.3808V32.3817C6.7896 32.726 5.8913 33.3346 5.19923 34.1437C4.507 34.9531 4.04632 35.9328 3.86551 36.9803C3.68446 38.028 3.7903 39.1049 4.1719 40.0979C4.5535 41.0908 5.19678 41.9631 6.03415 42.6232L6.45431 42.9514L6.62417 43.0842L6.46105 43.2251L2.49628 46.6556C1.71254 47.3338 1.12075 48.2043 0.779727 49.1805C0.438699 50.1568 0.360301 51.2049 0.552323 52.2206L2.21633 61.0404V61.0409C2.49025 62.4757 3.28763 63.759 4.45508 64.644L12.0179 70.3865C13.0525 71.1742 14.3188 71.6003 15.6214 71.5989ZM15.6214 71.5989V71.7765" stroke="black" stroke-width="1.005"/>
<path d="M64.3543 13.776V38.0704C64.3548 38.9308 64.1849 39.7829 63.8543 40.5779C63.5237 41.3729 63.0388 42.0952 62.4274 42.7035C61.1925 43.9323 59.5178 44.6227 57.7715 44.6229H49.429L49.2717 44.6998L45.1497 36.3165L54.3163 34.7249L47.2028 30.2976L58.4514 15.9378L40.092 24.4638L37.3725 15.0381L31.9118 22.8404L26.7373 19.8245L26.7692 19.7713V13.776C26.7685 12.4801 27.1542 11.213 27.8775 10.1354C28.6008 9.05771 29.6292 8.21788 30.8324 7.72222C31.6312 7.39278 32.4873 7.22319 33.352 7.22314H57.7719C58.6366 7.22303 59.4928 7.39245 60.2916 7.72175C61.0904 8.05104 61.8163 8.53375 62.4276 9.14229C63.0389 9.75083 63.5237 10.4733 63.8544 11.2684C64.1851 12.0634 64.3551 12.9156 64.3547 13.776H64.3543Z" fill="black"/>
<path d="M36.5726 29.4194L38.1961 39.8876L36.3034 47.4776L32.384 63.2013L30.8135 54.4043L36.5784 29.5523H36.547L36.5726 29.4194Z" fill="black"/>
<path d="M36.5725 29.5469L30.8085 54.3989L30.755 54.102L36.5406 29.5576L36.5725 29.5469ZM22.5536 49.0799L24.2194 57.8903L15.1436 66.5732L13.4746 57.7628L22.5536 49.0799Z" fill="black"/>
<path d="M26.7688 19.7713V13.776C26.7681 12.4801 27.1538 11.213 27.8771 10.1354C28.6004 9.05771 29.6288 8.21788 30.832 7.72222C31.6308 7.39281 32.4869 7.22322 33.3516 7.22314H57.7715C59.5178 7.2233 61.1926 7.91371 62.4274 9.14255C63.6614 10.3716 64.3545 12.0381 64.3543 13.7756V38.0709C64.3549 38.9313 64.185 39.7833 63.8543 40.5783C63.5237 41.3733 63.0388 42.0956 62.4274 42.7039C61.1924 43.9325 59.5178 44.6229 57.7715 44.6233H49.429" stroke="black" stroke-linecap="round" stroke-linejoin="round"/>
<path d="M22.9214 34.2139L22.9079 34.2059L16.2402 30.2669L25.5345 28.1315L21.8178 16.9549L26.737 19.8251L31.9146 22.8415L37.3722 15.0396L40.0944 24.4653L58.4515 15.9389L47.2025 30.2986L54.316 34.7237L45.1498 36.318L49.2719 44.7013L50.7543 47.7177L42.1984 44.6244L39.4626 51.6147L36.5858 47.5478" stroke="black" stroke-linecap="round" stroke-linejoin="round"/>
<path d="M36.5403 29.5576L22.9078 34.2054L9.24076 38.8662C9.24076 38.8662 11.9738 41.0204 15.4933 43.7291L5.89478 52.0167L13.4644 57.7628M22.5537 49.0799L30.8 54.4441L30.8081 54.399M22.5537 49.0799L13.4747 57.7628L15.1436 66.5732M22.5537 49.0799L24.2195 57.8903M32.3836 63.2013L32.4663 63.2514" stroke="black" stroke-linecap="round" stroke-linejoin="round"/>
<path d="M5.90601 52.0167L7.57226 60.8266L15.1549 66.5728L24.22 57.8898C24.22 57.8898 30.5044 62.0099 32.3787 63.1959M36.5403 29.5576L36.5722 29.4194L38.1989 39.8876L36.303 47.4776L32.3863 63.2013L32.3836 63.2089L32.3809 63.1959L30.8081 54.399L30.7547 54.102L36.5403 29.5576Z" stroke="black" stroke-linecap="round" stroke-linejoin="round"/>
</g>
<defs>
<clipPath id="clip0_1_2896">
<rect width="71" height="72" fill="white"/>
</clipPath>
</defs>
</svg>
